<?xml version="1.0" encoding="UTF-8" standalone="no"?>
<!-- Created with Inkscape (http://www.inkscape.org/) -->

<svg
   xmlns:dc="http://purl.org/dc/elements/1.1/"
   xmlns:cc="http://creativecommons.org/ns#"
   xmlns:rdf="http://www.w3.org/1999/02/22-rdf-syntax-ns#"
   xmlns:sodipodi="http://sodipodi.sourceforge.net/DTD/sodipodi-0.dtd"
   xmlns:inkscape="http://www.inkscape.org/namespaces/inkscape"
   xmlns="http://www.w3.org/2000/svg"
   id="svg2"
   version="1.1"
   inkscape:version="0.91 r13725"
   xml:space="preserve"
   width="1169.839"
   height="941.08337"
   viewBox="0 0 1169.839 941.08333"
   sodipodi:docname="warning.svg"><metadata
     id="metadata8"><rdf:RDF><cc:Work
         rdf:about=""><dc:format>image/svg+xml</dc:format><dc:type
           rdf:resource="http://purl.org/dc/dcmitype/StillImage" /><dc:title></dc:title></cc:Work></rdf:RDF></metadata><defs
     id="defs6" /><sodipodi:namedview
     pagecolor="#ffffff"
     bordercolor="#666666"
     borderopacity="1"
     objecttolerance="10"
     gridtolerance="10"
     guidetolerance="10"
     inkscape:pageopacity="0"
     inkscape:pageshadow="2"
     inkscape:window-width="1920"
     inkscape:window-height="1020"
     id="namedview4"
     showgrid="false"
     fit-margin-top="0"
     fit-margin-left="0"
     fit-margin-right="0"
     fit-margin-bottom="0"
     inkscape:zoom="0.63429547"
     inkscape:cx="518.99111"
     inkscape:cy="521.4413"
     inkscape:window-x="0"
     inkscape:window-y="0"
     inkscape:window-maximized="1"
     inkscape:current-layer="g10" /><g
     id="g10"
     inkscape:groupmode="layer"
     inkscape:label="online_sign_ref_st591532185521"
     transform="matrix(1.25,0,0,-1.25,210.78184,980.85362)"><g
       id="g12"
       transform="matrix(5.208,0,0,5.208,-1228.258,-1667.694)"><path
         d="m 293.3118,470.8865 c 23.6671,0 42.8531,-19.1866 42.8531,-42.8536 0,-23.6662 -19.186,-42.8536 -42.8531,-42.8536 -23.667,0 -42.853,19.1872 -42.853,42.8536 0,23.6673 19.186,42.8533 42.853,42.8536"
         style="fill:#0d7fc7;fill-opacity:1;fill-rule:evenodd;stroke:none"
         id="path14"
         inkscape:connector-curvature="0" /><path
         d="m 283.4408,457.8321 4.2485,-40.2341 c 0,0 0.9995,-4.9983 5.1639,-4.9983 4.843,3e-4 5.5811,4.915 5.5811,4.915 l 4.4156,40.401 c 0,0 -0.5426,9.7461 -9.6631,9.7461 -9.7381,0 -9.746,-9.8297 -9.746,-9.8297"
         style="fill:#ffffff;fill-opacity:1;fill-rule:evenodd;stroke:none"
         id="path16"
         inkscape:connector-curvature="0" /><path
         d="m 293.3118,388.1305 c 5.3022,0 9.601,4.2978 9.601,9.6006 0,5.3025 -4.2988,9.601 -9.601,9.601 -5.3022,2e-4 -9.6012,-4.2988 -9.6012,-9.601 0,-5.3025 4.299,-9.6009 9.6012,-9.6006"
         style="fill:#ffffff;fill-opacity:1;fill-rule:evenodd;stroke:none"
         id="path18"
         inkscape:connector-curvature="0" /></g><g
       id="g34"><text
         transform="matrix(1,0,0,-1,97.16,121.2)"
         style="font-variant:normal;font-weight:normal;font-size:59px;font-family:Helvetica;-inkscape-font-specification:Helvetica;writing-mode:lr-tb;fill:#ffffff;fill-opacity:1;fill-rule:nonzero;stroke:none"
         id="text36"><tspan
           sodipodi:role="line"
           id="tspan38"
           x="0"
           y="0" /></text>
</g><g
       id="g40"><text
         transform="matrix(1,0,0,-1,51.26,64.5)"
         style="font-variant:normal;font-weight:normal;font-size:59px;font-family:Helvetica;-inkscape-font-specification:Helvetica;writing-mode:lr-tb;fill:#ffffff;fill-opacity:1;fill-rule:nonzero;stroke:none"
         id="text42"><tspan
           sodipodi:role="line"
           id="tspan44"
           x="0"
           y="0" /></text>
</g><g
       id="g4413"
       transform="translate(-77.465015,0)"><path
         inkscape:connector-curvature="0"
         id="path20"
         style="fill:#0082c5;fill-opacity:1;fill-rule:nonzero;stroke:none"
         d="m -73.922831,258.58621 901.395931,0 c 9.5224,0 17.23762,-4.44 17.23762,-9.92 l 0,-206.930001 c 0,-5.48 -7.71522,-9.92 -17.23762,-9.92 l -901.395931,0 c -9.5224,0 -17.237629,4.44 -17.237629,9.92 l 0,206.930001 c 0,5.48 7.715229,9.92 17.237629,9.92" /><g
         id="g4423"
         transform="translate(5.9457804,-4.6196992)"><g
           id="g28"
           transform="translate(11.351177,11.351177)"><text
             style="font-variant:normal;font-weight:normal;font-size:59px;font-family:Helvetica;-inkscape-font-specification:Helvetica;text-align:start;letter-spacing:0.80000001px;writing-mode:lr-tb;text-anchor:start;fill:#ffffff;fill-opacity:1;fill-rule:nonzero;stroke:none"
             id="text30"
             x="-110.44653"
             y="-167.80006"
             transform="scale(1,-1)"><tspan
               sodipodi:role="line"
               id="tspan32"
               style="letter-spacing:0.80000001px"
               y="-167.80006"
               x="-42.371834 0.22616737 33.030167 49.432167 82.236168 115.04017 131.44217 147.84418 180.64818 210.14818 242.95218 275.75616 305.25616 338.06018 354.46219 370.86417 403.66818">Do not expose the cookies file </tspan><tspan
               sodipodi:role="line"
               id="tspan4172"
               x="-42.371834"
               y="0"
               style="letter-spacing:0.80000001px" /></text>
</g><text
           style="font-variant:normal;font-weight:normal;font-size:59px;font-family:Helvetica;-inkscape-font-specification:Helvetica;text-align:start;letter-spacing:8px;writing-mode:lr-tb;text-anchor:start;fill:#ffffff;fill-opacity:1;fill-rule:nonzero;stroke:none"
           id="text30-3"
           x="-28.247656"
           y="-151.93758"
           transform="scale(1,-1)"><tspan
             sodipodi:role="line"
             id="tspan32-6"
             x="-28.247656"
             y="-151.93758" /><tspan
             sodipodi:role="line"
             id="tspan4172-7"
             x="-28.247656"
             y="-78.187576">and delete it afterwards</tspan></text>
</g></g></g></svg>